<svg width="364" height="139" viewBox="0 0 364 139" fill="none" xmlns="http://www.w3.org/2000/svg">
<path d="M90.2544 117.752C94.0464 118.496 95.9424 120.464 95.9424 123.656C95.9424 125.984 95.1024 127.796 93.4224 129.092C91.7424 130.364 89.5584 131 86.8704 131H75.1704V129.416C75.1704 129.056 75.3504 128.84 75.7104 128.768L77.7624 128.336V107.888L75.7104 107.456C75.3504 107.384 75.1704 107.168 75.1704 106.808V105.224H86.0064C88.8144 105.224 91.0224 105.752 92.6304 106.808C94.2624 107.864 95.0784 109.496 95.0784 111.704C95.0784 113.264 94.6824 114.536 93.8904 115.52C93.0984 116.504 91.8864 117.248 90.2544 117.752ZM85.8624 116.744C87.6864 116.744 89.1024 116.396 90.1104 115.7C91.1184 114.98 91.6224 113.888 91.6224 112.424C91.6224 110.864 91.1424 109.748 90.1824 109.076C89.2464 108.38 87.8544 108.032 86.0064 108.032H81.2544V116.744H85.8624ZM92.4864 123.584C92.4864 122.096 91.9824 121.004 90.9744 120.308C89.9904 119.612 88.6104 119.264 86.8344 119.264H81.2544V128.228H86.8704C88.7664 128.252 90.1704 127.868 91.0824 127.076C92.0184 126.26 92.4864 125.096 92.4864 123.584ZM106.162 112.496C107.482 112.496 108.682 112.712 109.762 113.144C110.818 113.576 111.742 114.2 112.534 115.016C113.278 115.784 113.854 116.768 114.262 117.968C114.67 119.144 114.874 120.44 114.874 121.856C114.874 123.272 114.67 124.568 114.262 125.744C113.854 126.944 113.278 127.928 112.534 128.696C111.742 129.512 110.818 130.136 109.762 130.568C108.682 131 107.482 131.216 106.162 131.216C104.842 131.216 103.642 131 102.562 130.568C101.506 130.136 100.582 129.512 99.7902 128.696C99.0702 127.952 98.4822 126.968 98.0262 125.744C97.6422 124.712 97.4502 123.416 97.4502 121.856C97.4502 120.296 97.6422 119 98.0262 117.968C98.4822 116.744 99.0702 115.76 99.7902 115.016C100.582 114.2 101.506 113.576 102.562 113.144C103.642 112.712 104.842 112.496 106.162 112.496ZM106.162 128.768C108.01 128.768 109.354 128.168 110.194 126.968C111.082 125.72 111.526 124.028 111.526 121.892C111.526 119.756 111.082 118.064 110.194 116.816C109.354 115.616 108.01 115.016 106.162 115.016C105.226 115.016 104.434 115.16 103.786 115.448C103.162 115.736 102.61 116.192 102.13 116.816C101.674 117.44 101.338 118.16 101.122 118.976C100.882 119.936 100.762 120.92 100.762 121.928C100.762 122.888 100.882 123.848 101.122 124.808C101.338 125.624 101.674 126.344 102.13 126.968C102.538 127.52 103.09 127.952 103.786 128.264C104.554 128.6 105.346 128.768 106.162 128.768ZM126.096 112.496C127.416 112.496 128.616 112.712 129.696 113.144C130.752 113.576 131.676 114.2 132.468 115.016C133.212 115.784 133.788 116.768 134.196 117.968C134.604 119.144 134.808 120.44 134.808 121.856C134.808 123.272 134.604 124.568 134.196 125.744C133.788 126.944 133.212 127.928 132.468 128.696C131.676 129.512 130.752 130.136 129.696 130.568C128.616 131 127.416 131.216 126.096 131.216C124.776 131.216 123.576 131 122.496 130.568C121.44 130.136 120.516 129.512 119.724 128.696C119.004 127.952 118.416 126.968 117.96 125.744C117.576 124.712 117.384 123.416 117.384 121.856C117.384 120.296 117.576 119 117.96 117.968C118.416 116.744 119.004 115.76 119.724 115.016C120.516 114.2 121.44 113.576 122.496 113.144C123.576 112.712 124.776 112.496 126.096 112.496ZM126.096 128.768C127.944 128.768 129.288 128.168 130.128 126.968C131.016 125.72 131.46 124.028 131.46 121.892C131.46 119.756 131.016 118.064 130.128 116.816C129.288 115.616 127.944 115.016 126.096 115.016C125.16 115.016 124.368 115.16 123.72 115.448C123.096 115.736 122.544 116.192 122.064 116.816C121.608 117.44 121.272 118.16 121.056 118.976C120.816 119.936 120.696 120.92 120.696 121.928C120.696 122.888 120.816 123.848 121.056 124.808C121.272 125.624 121.608 126.344 122.064 126.968C122.472 127.52 123.024 127.952 123.72 128.264C124.488 128.6 125.28 128.768 126.096 128.768ZM154.871 128.768C155.231 128.84 155.411 129.056 155.411 129.416V131H152.027C151.571 131 151.163 130.784 150.803 130.352L144.827 122.864C144.659 122.624 144.479 122.468 144.287 122.396C144.095 122.324 143.819 122.288 143.459 122.288H142.595V128.372C142.739 128.372 143.159 128.456 143.855 128.624L144.611 128.768C144.995 128.84 145.187 129.068 145.187 129.452V131H136.763V129.452C136.763 129.068 136.943 128.84 137.303 128.768L139.355 128.372V107.096C138.203 106.88 137.519 106.736 137.303 106.664C136.943 106.592 136.763 106.376 136.763 106.016V104.468H142.595V120.056H143.387C143.891 120.056 144.275 119.888 144.539 119.552L148.643 115.16C148.571 115.16 148.499 115.148 148.427 115.124C148.355 115.1 148.283 115.088 148.211 115.088L147.635 114.98C147.251 114.908 147.059 114.68 147.059 114.296V112.784H154.691V114.296C154.691 114.656 154.535 114.872 154.223 114.944L151.991 115.376L147.743 119.912C147.359 120.368 147.011 120.692 146.699 120.884C147.179 121.196 147.539 121.568 147.779 122L152.819 128.408L153.755 128.552C154.379 128.696 154.763 128.768 154.907 128.768H154.871ZM175.318 105.008C176.254 105.008 177.118 105.152 177.91 105.44C178.654 105.704 179.338 106.112 179.962 106.664C180.514 107.144 180.958 107.72 181.294 108.392C181.606 108.992 181.798 109.688 181.87 110.48L179.89 110.876L179.71 110.912C179.614 110.912 179.47 110.864 179.278 110.768C179.158 110.72 179.062 110.576 178.99 110.336C178.918 110.048 178.786 109.712 178.594 109.328C178.45 109.04 178.222 108.74 177.91 108.428C177.646 108.164 177.286 107.936 176.83 107.744C176.374 107.552 175.894 107.456 175.39 107.456C174.742 107.456 174.19 107.552 173.734 107.744C173.278 107.936 172.87 108.212 172.51 108.572C172.15 108.932 171.886 109.328 171.718 109.76C171.526 110.264 171.43 110.768 171.43 111.272C171.43 111.68 171.49 112.088 171.61 112.496C171.73 112.928 171.886 113.312 172.078 113.648C172.246 113.96 172.51 114.356 172.87 114.836C173.158 115.22 173.542 115.652 174.022 116.132L181.438 123.656C181.846 122.912 182.206 122.072 182.518 121.136C182.83 120.2 183.022 119.312 183.094 118.472C183.094 118.28 183.166 118.112 183.31 117.968C183.454 117.824 183.622 117.752 183.814 117.752H185.758C185.758 119.12 185.542 120.476 185.11 121.82C184.654 123.236 184.054 124.484 183.31 125.564L188.71 131.036H185.614C185.254 131.036 184.966 131 184.75 130.928C184.606 130.88 184.366 130.688 184.03 130.352L181.438 127.76C180.262 128.864 178.966 129.728 177.55 130.352C176.134 130.976 174.514 131.288 172.69 131.288C171.73 131.288 170.794 131.132 169.882 130.82C168.946 130.484 168.118 130.016 167.398 129.416C166.678 128.816 166.102 128.072 165.67 127.184C165.238 126.32 165.022 125.312 165.022 124.16C165.022 123.32 165.166 122.528 165.454 121.784C165.766 120.992 166.15 120.296 166.606 119.696C167.086 119.072 167.686 118.496 168.406 117.968C169.078 117.488 169.822 117.056 170.638 116.672C169.966 115.808 169.438 114.908 169.054 113.972C168.694 113.108 168.514 112.208 168.514 111.272C168.514 110.36 168.67 109.52 168.982 108.752C169.27 108.056 169.738 107.384 170.386 106.736C170.938 106.184 171.67 105.74 172.582 105.404C173.422 105.092 174.382 104.936 175.462 104.936L175.318 105.008ZM168.226 123.908C168.226 124.7 168.37 125.384 168.658 125.96C168.946 126.56 169.318 127.064 169.774 127.472C170.182 127.832 170.722 128.144 171.394 128.408C171.97 128.624 172.582 128.732 173.23 128.732C174.55 128.732 175.75 128.48 176.83 127.976C177.91 127.472 178.846 126.824 179.638 126.032L172.042 118.364C170.794 119.012 169.834 119.828 169.162 120.812C168.514 121.748 168.19 122.792 168.19 123.944L168.226 123.908ZM216.828 111.452H215.1C214.668 111.452 214.416 111.248 214.344 110.84L214.092 108.068H204.444V116.636H213.948V119.372H204.444V128.192H214.092L214.308 125.6C214.38 125.216 214.644 125.024 215.1 125.024H216.828V131H198.324V129.488C198.324 129.104 198.504 128.876 198.864 128.804L200.916 128.408V107.852C199.764 107.636 199.08 107.492 198.864 107.42C198.504 107.348 198.324 107.12 198.324 106.736V105.224H216.828V111.452ZM225.069 115.376C226.869 113.432 228.885 112.46 231.117 112.46C233.085 112.46 234.597 113.096 235.653 114.368C236.685 115.616 237.201 117.284 237.201 119.372V128.336C238.353 128.552 239.037 128.696 239.253 128.768C239.637 128.84 239.829 129.068 239.829 129.452V131H233.997V119.408C233.997 116.48 232.725 115.016 230.181 115.016C228.381 115.016 226.725 115.868 225.213 117.572V128.372C225.309 128.372 226.005 128.516 227.301 128.804C227.661 128.876 227.841 129.104 227.841 129.488V131H219.453V129.488C219.453 129.104 219.621 128.876 219.957 128.804L222.045 128.408V115.412C220.845 115.196 220.149 115.052 219.957 114.98C219.621 114.908 219.453 114.68 219.453 114.296V112.784H223.917C224.349 112.784 224.637 113 224.781 113.432L225.069 115.412V115.376ZM248.649 106.16C248.769 106.4 248.829 106.7 248.829 107.06C248.829 107.396 248.769 107.684 248.649 107.924C248.505 108.212 248.337 108.452 248.145 108.644C247.953 108.836 247.713 109.004 247.425 109.148C247.185 109.268 246.897 109.328 246.561 109.328C246.225 109.328 245.937 109.268 245.697 109.148C245.409 109.004 245.169 108.836 244.977 108.644C244.785 108.452 244.617 108.212 244.473 107.924C244.353 107.684 244.293 107.396 244.293 107.06C244.293 106.7 244.353 106.4 244.473 106.16C244.641 105.824 244.809 105.572 244.977 105.404C245.169 105.212 245.409 105.044 245.697 104.9C245.937 104.78 246.225 104.72 246.561 104.72C246.897 104.72 247.185 104.78 247.425 104.9C247.713 105.044 247.953 105.212 248.145 105.404C248.313 105.572 248.481 105.824 248.649 106.16ZM245.301 137.156C244.701 137.42 243.969 137.552 243.105 137.552C242.337 137.552 241.593 137.432 240.873 137.192L241.017 135.464C241.065 135.224 241.257 135.104 241.593 135.104H242.313C243.249 135.104 243.909 134.888 244.293 134.456C244.701 134 244.905 133.304 244.905 132.368V115.412C244.761 115.388 244.533 115.352 244.221 115.304C243.909 115.232 243.441 115.136 242.817 115.016C242.481 114.944 242.313 114.716 242.313 114.332V112.784H248.073V132.368C248.073 134.792 247.149 136.4 245.301 137.192V137.156ZM259.514 112.496C260.834 112.496 262.034 112.712 263.114 113.144C264.17 113.576 265.094 114.2 265.886 115.016C266.63 115.784 267.206 116.768 267.614 117.968C268.022 119.144 268.226 120.44 268.226 121.856C268.226 123.272 268.022 124.568 267.614 125.744C267.206 126.944 266.63 127.928 265.886 128.696C265.094 129.512 264.17 130.136 263.114 130.568C262.034 131 260.834 131.216 259.514 131.216C258.194 131.216 256.994 131 255.914 130.568C254.858 130.136 253.934 129.512 253.142 128.696C252.422 127.952 251.834 126.968 251.378 125.744C250.994 124.712 250.802 123.416 250.802 121.856C250.802 120.296 250.994 119 251.378 117.968C251.834 116.744 252.422 115.76 253.142 115.016C253.934 114.2 254.858 113.576 255.914 113.144C256.994 112.712 258.194 112.496 259.514 112.496ZM259.514 128.768C261.362 128.768 262.706 128.168 263.546 126.968C264.434 125.72 264.878 124.028 264.878 121.892C264.878 119.756 264.434 118.064 263.546 116.816C262.706 115.616 261.362 115.016 259.514 115.016C258.578 115.016 257.786 115.16 257.138 115.448C256.514 115.736 255.962 116.192 255.482 116.816C255.026 117.44 254.69 118.16 254.474 118.976C254.234 119.936 254.114 120.92 254.114 121.928C254.114 122.888 254.234 123.848 254.474 124.808C254.69 125.624 255.026 126.344 255.482 126.968C255.89 127.52 256.442 127.952 257.138 128.264C257.906 128.6 258.698 128.768 259.514 128.768ZM289.308 114.296C289.308 114.656 289.128 114.872 288.768 114.944C288.672 114.944 288.528 114.968 288.336 115.016C288.168 115.064 287.988 115.112 287.796 115.16L286.896 115.34L277.86 136.364C277.764 136.604 277.608 136.796 277.392 136.94C277.2 137.084 276.972 137.156 276.708 137.156H274.332L277.644 129.92L271.236 115.304C270.516 115.184 269.976 115.064 269.616 114.944C269.256 114.872 269.076 114.656 269.076 114.296V112.748H277.248V114.296C277.248 114.656 277.068 114.872 276.708 114.944C276.468 115.016 275.796 115.16 274.692 115.376L278.76 124.88C278.88 125.144 278.976 125.456 279.048 125.816C279.144 126.176 279.204 126.416 279.228 126.536C279.396 125.96 279.588 125.408 279.804 124.88L283.728 115.376C283.728 115.376 283.068 115.244 281.748 114.98C281.412 114.908 281.244 114.68 281.244 114.296V112.784H288.012L289.308 112.748V114.296Z" fill="white"/>
<rect x="134" width="96" height="96" rx="48" fill="#333333"/>
<path d="M208.284 51.8363C209.38 49.98 210 48 210 45.6063C210 40.1044 205.348 34.9088 199.272 34.9088H194.713C195.328 33.3075 195.819 31.3925 195.819 29.0913C195.819 19.992 191.108 16 183.91 16C176.209 16 176.648 27.8666 174.94 29.575C172.097 32.4184 168.738 37.8809 166.345 40H154C151.791 40 150 41.7909 150 44V74C150 76.2091 151.791 78 154 78H162C163.862 78 165.426 76.7282 165.872 75.0062C171.436 75.1314 175.255 79.9987 188.097 79.9987C189 79.9987 190 80 190.875 80C200.515 80 204.873 75.0721 204.993 68.0838C206.657 65.7806 207.53 62.6935 207.16 59.71C208.392 57.4035 208.868 54.6671 208.284 51.8363ZM200.565 58.565C202.135 61.2062 200.722 64.7412 198.822 65.7612C199.785 71.8587 196.621 73.9987 192.182 73.9987H187.455C178.5 73.9987 172.701 69.2713 166 69.2713V46H167.365C170.91 46 175.863 37.1387 179.183 33.8175C182.728 30.2725 181.546 24.3637 183.91 22C189.819 22 189.819 26.1225 189.819 29.0913C189.819 33.9875 186.274 36.1813 186.274 40.9088H199.272C201.911 40.9088 203.989 43.2725 204 45.6362C204.011 47.9987 202.398 50.3625 201.216 50.3625C202.902 52.1819 203.263 56.017 200.565 58.565V58.565ZM161 70C161 71.6569 159.657 73 158 73C156.343 73 155 71.6569 155 70C155 68.3431 156.343 67 158 67C159.657 67 161 68.3431 161 70Z" fill="#00A2FF"/>
</svg>
