<svg width="364" height="139" viewBox="0 0 364 139" fill="none" xmlns="http://www.w3.org/2000/svg">
<path d="M87.5343 117.356C90.1263 118.508 91.4223 120.44 91.4223 123.152C91.4223 125.528 90.6783 127.46 89.1903 128.948C87.6303 130.508 85.4943 131.288 82.7823 131.288C81.6543 131.288 80.4783 131.18 79.2543 130.964C78.2943 130.796 77.3343 130.568 76.3743 130.28L75.3303 129.92V123.44H77.0943C77.5023 123.44 77.7423 123.644 77.8143 124.052C77.8623 124.244 77.9223 124.832 77.9943 125.816L78.1023 127.4C79.9743 128.072 81.4383 128.408 82.4943 128.408C83.5503 128.408 84.4383 128.288 85.1583 128.048C85.8543 127.832 86.4063 127.508 86.8143 127.076C87.7263 126.236 88.1823 125.096 88.1823 123.656C88.1823 122.264 87.5343 121.208 86.2383 120.488C85.6623 120.128 85.0143 119.84 84.2943 119.624C81.7263 118.832 80.2143 118.328 79.7583 118.112C79.0623 117.8 78.4023 117.368 77.7783 116.816C76.5063 115.688 75.8703 114.08 75.8703 111.992C75.8703 110.096 76.5543 108.464 77.9223 107.096C79.4103 105.656 81.3303 104.936 83.6823 104.936C86.1783 104.936 88.5903 105.416 90.9183 106.376V112.316H89.1903C88.7583 112.316 88.5063 112.112 88.4343 111.704C88.4343 111.632 88.4103 111.392 88.3623 110.984C88.3383 110.552 88.2783 109.724 88.1823 108.5C86.5023 108.044 85.0863 107.816 83.9343 107.816C82.3743 107.816 81.1743 108.2 80.3343 108.968C79.5183 109.712 79.1103 110.672 79.1103 111.848C79.1103 113.12 79.7583 114.116 81.0543 114.836C81.5823 115.172 82.2543 115.472 83.0703 115.736C85.2303 116.456 86.7423 116.996 87.6063 117.356H87.5343ZM101.533 112.496C102.589 112.496 103.585 112.676 104.521 113.036C105.481 113.396 106.273 113.912 106.897 114.584C107.617 115.352 108.145 116.204 108.481 117.14C108.865 118.22 109.057 119.372 109.057 120.596C109.057 121.148 109.009 121.484 108.913 121.604C108.793 121.772 108.577 121.856 108.265 121.856H96.1693C96.1693 123.008 96.3133 124.016 96.6013 124.88C96.8413 125.624 97.2493 126.32 97.8253 126.968C98.3533 127.568 98.9533 128 99.6253 128.264C100.345 128.552 101.113 128.696 101.929 128.696C102.793 128.696 103.489 128.612 104.017 128.444C104.521 128.276 105.025 128.072 105.529 127.832C106.057 127.568 106.417 127.376 106.609 127.256C106.921 127.064 107.161 126.968 107.329 126.968C107.593 126.968 107.797 127.076 107.941 127.292L108.841 128.48C108.505 128.912 108.025 129.32 107.401 129.704C106.681 130.16 106.093 130.46 105.637 130.604C104.917 130.844 104.269 131.012 103.693 131.108C102.973 131.228 102.313 131.288 101.713 131.288C100.465 131.288 99.3013 131.072 98.2213 130.64C97.1893 130.232 96.2653 129.596 95.4493 128.732C94.6813 127.94 94.0813 126.92 93.6493 125.672C93.2173 124.448 93.0013 123.056 93.0013 121.496C93.0013 120.248 93.2053 119.072 93.6133 117.968C94.0213 116.84 94.5853 115.88 95.3053 115.088C96.0493 114.272 96.9493 113.636 98.0053 113.18C99.0613 112.724 100.237 112.496 101.533 112.496ZM101.605 114.836C100.045 114.836 98.8333 115.28 97.9693 116.168C97.0813 117.104 96.5293 118.352 96.3133 119.912H106.213C106.213 119.168 106.105 118.496 105.889 117.896C105.625 117.152 105.337 116.612 105.025 116.276C104.617 115.844 104.125 115.496 103.549 115.232C102.997 114.992 102.337 114.872 101.569 114.872L101.605 114.836ZM126.992 128.696C127.16 128.72 127.292 128.804 127.388 128.948C127.484 129.068 127.532 129.212 127.532 129.38V130.928H123.788C123.572 130.928 123.32 130.88 123.032 130.784C122.864 130.736 122.744 130.544 122.672 130.208L122.312 128.48L120.872 129.668C120.464 130.004 119.984 130.292 119.432 130.532C118.904 130.772 118.376 130.952 117.848 131.072C117.368 131.192 116.72 131.252 115.904 131.252C115.232 131.252 114.584 131.144 113.96 130.928C113.216 130.664 112.676 130.376 112.34 130.064C111.908 129.68 111.548 129.176 111.26 128.552C110.996 128 110.864 127.28 110.864 126.392C110.864 125.624 111.056 124.928 111.44 124.304C111.872 123.608 112.52 123.008 113.384 122.504C114.344 121.952 115.496 121.52 116.84 121.208C118.232 120.896 119.984 120.74 122.096 120.74V119.336C122.096 117.92 121.784 116.84 121.16 116.096C120.536 115.352 119.636 114.98 118.46 114.98C117.692 114.98 117.032 115.088 116.48 115.304C115.856 115.544 115.4 115.76 115.112 115.952C114.968 116.048 114.8 116.156 114.608 116.276C114.44 116.372 114.26 116.48 114.068 116.6C113.804 116.792 113.528 116.888 113.24 116.888C112.976 116.888 112.784 116.84 112.664 116.744C112.52 116.624 112.4 116.48 112.304 116.312L111.728 115.304C112.664 114.392 113.744 113.672 114.968 113.144C116.072 112.664 117.368 112.424 118.856 112.424C119.936 112.424 120.848 112.592 121.592 112.928C122.408 113.288 123.068 113.744 123.572 114.296C124.1 114.848 124.508 115.568 124.796 116.456C125.06 117.248 125.192 118.184 125.192 119.264V128.372C126.344 128.612 126.944 128.744 126.992 128.768V128.696ZM122.024 122.792C120.464 122.792 119.216 122.876 118.28 123.044C117.368 123.212 116.528 123.464 115.76 123.8C115.088 124.112 114.608 124.472 114.32 124.88C114.032 125.312 113.888 125.768 113.888 126.248C113.888 126.632 113.972 127.04 114.14 127.472C114.284 127.832 114.5 128.12 114.788 128.336C115.076 128.552 115.388 128.708 115.724 128.804C116.132 128.924 116.528 128.984 116.912 128.984C117.392 128.984 117.896 128.924 118.424 128.804C118.904 128.684 119.348 128.528 119.756 128.336C120.116 128.168 120.512 127.904 120.944 127.544C121.184 127.352 121.544 127.016 122.024 126.536V122.792ZM135.333 116.492C136.677 113.78 138.525 112.424 140.877 112.424C141.813 112.424 142.641 112.64 143.361 113.072L142.965 115.484C142.893 115.796 142.737 115.952 142.497 115.952C142.329 115.952 142.041 115.892 141.633 115.772C141.225 115.652 140.733 115.592 140.157 115.592C138.045 115.592 136.485 116.864 135.477 119.408V128.408L137.529 128.804C137.889 128.876 138.069 129.104 138.069 129.488V131H129.681V129.488C129.681 129.104 129.861 128.876 130.221 128.804L132.273 128.408V115.412C131.121 115.196 130.437 115.052 130.221 114.98C129.861 114.908 129.681 114.68 129.681 114.296V112.784H134.109C134.445 112.784 134.673 112.844 134.793 112.964C134.913 113.084 135.009 113.312 135.081 113.648L135.297 116.492H135.333ZM159.056 128.444C157.544 130.316 155.288 131.252 152.288 131.252C149.984 131.252 148.088 130.424 146.6 128.768C145.04 127.016 144.26 124.712 144.26 121.856C144.26 119.072 144.992 116.828 146.456 115.124C147.992 113.372 150.128 112.496 152.864 112.496C154.232 112.496 156.032 112.928 158.264 113.792V118.544H156.824C156.488 118.544 156.284 118.376 156.212 118.04C156.188 117.968 156.14 117.512 156.068 116.672L155.96 115.484C155.696 115.388 155.432 115.316 155.168 115.268C154.928 115.22 154.76 115.184 154.664 115.16C154.016 115.064 153.344 115.016 152.648 115.016C152.024 115.016 151.364 115.172 150.668 115.484C150.02 115.772 149.456 116.216 148.976 116.816C148.064 118.016 147.608 119.696 147.608 121.856C147.608 124.016 148.088 125.72 149.048 126.968C149.984 128.168 151.268 128.768 152.9 128.768C154.412 128.768 155.744 128.264 156.896 127.256C157.088 127.064 157.328 126.968 157.616 126.968C157.88 126.968 158.072 127.064 158.192 127.256L159.056 128.444ZM166.872 115.232C168.624 113.408 170.568 112.496 172.704 112.496C174.648 112.496 176.16 113.12 177.24 114.368C178.296 115.616 178.824 117.296 178.824 119.408V128.372C179.976 128.588 180.66 128.732 180.876 128.804C181.236 128.876 181.416 129.104 181.416 129.488V131H175.62V119.408C175.62 116.504 174.336 115.052 171.768 115.052C170.016 115.052 168.384 115.904 166.872 117.608V128.408L167.304 128.48L168.888 128.804C169.272 128.876 169.464 129.104 169.464 129.488V131H161.04V129.488C161.04 129.104 161.232 128.876 161.616 128.804L163.632 128.408V107.132C162.264 106.916 161.472 106.772 161.256 106.7C160.872 106.628 160.68 106.4 160.68 106.016V104.504H166.872V115.232ZM205.243 105.728C208.795 106.88 210.571 109.376 210.571 113.216C210.571 115.688 209.755 117.632 208.123 119.048C206.371 120.584 203.995 121.352 200.995 121.352H197.323V128.372C197.515 128.444 198.211 128.588 199.411 128.804C199.747 128.876 199.915 129.104 199.915 129.488V131H191.275V129.488C191.275 129.104 191.455 128.876 191.815 128.804L193.867 128.408V107.852C192.715 107.636 192.031 107.492 191.815 107.42C191.455 107.348 191.275 107.12 191.275 106.736V105.224H200.995C202.603 105.224 204.019 105.404 205.243 105.764V105.728ZM207.079 113.144C207.079 111.536 206.575 110.264 205.567 109.328C204.583 108.416 203.059 107.96 200.995 107.96H197.323V118.544H200.995C202.939 118.544 204.439 118.064 205.495 117.104C206.575 116.12 207.115 114.812 207.115 113.18L207.079 113.144ZM220.32 128.768C220.704 128.84 220.896 129.068 220.896 129.452V131H212.472V129.452C212.472 129.068 212.664 128.84 213.048 128.768L215.064 128.372V107.096C213.96 106.88 213.288 106.736 213.048 106.664C212.664 106.592 212.472 106.376 212.472 106.016V104.468H218.304V128.336C219.408 128.552 220.08 128.696 220.32 128.768ZM238.754 128.696C238.922 128.72 239.054 128.804 239.15 128.948C239.246 129.068 239.294 129.212 239.294 129.38V130.928H235.55C235.334 130.928 235.082 130.88 234.794 130.784C234.626 130.736 234.506 130.544 234.434 130.208L234.074 128.48L232.634 129.668C232.226 130.004 231.746 130.292 231.194 130.532C230.666 130.772 230.138 130.952 229.61 131.072C229.13 131.192 228.482 131.252 227.666 131.252C226.994 131.252 226.346 131.144 225.722 130.928C224.978 130.664 224.438 130.376 224.102 130.064C223.67 129.68 223.31 129.176 223.022 128.552C222.758 128 222.626 127.28 222.626 126.392C222.626 125.624 222.818 124.928 223.202 124.304C223.634 123.608 224.282 123.008 225.146 122.504C226.106 121.952 227.258 121.52 228.602 121.208C229.994 120.896 231.746 120.74 233.858 120.74V119.336C233.858 117.92 233.546 116.84 232.922 116.096C232.298 115.352 231.398 114.98 230.222 114.98C229.454 114.98 228.794 115.088 228.242 115.304C227.618 115.544 227.162 115.76 226.874 115.952C226.73 116.048 226.562 116.156 226.37 116.276C226.202 116.372 226.022 116.48 225.83 116.6C225.566 116.792 225.29 116.888 225.002 116.888C224.738 116.888 224.546 116.84 224.426 116.744C224.282 116.624 224.162 116.48 224.066 116.312L223.49 115.304C224.426 114.392 225.506 113.672 226.73 113.144C227.834 112.664 229.13 112.424 230.618 112.424C231.698 112.424 232.61 112.592 233.354 112.928C234.17 113.288 234.83 113.744 235.334 114.296C235.862 114.848 236.27 115.568 236.558 116.456C236.822 117.248 236.954 118.184 236.954 119.264V128.372C238.106 128.612 238.706 128.744 238.754 128.768V128.696ZM233.786 122.792C232.226 122.792 230.978 122.876 230.042 123.044C229.13 123.212 228.29 123.464 227.522 123.8C226.85 124.112 226.37 124.472 226.082 124.88C225.794 125.312 225.65 125.768 225.65 126.248C225.65 126.632 225.734 127.04 225.902 127.472C226.046 127.832 226.262 128.12 226.55 128.336C226.838 128.552 227.15 128.708 227.486 128.804C227.894 128.924 228.29 128.984 228.674 128.984C229.154 128.984 229.658 128.924 230.186 128.804C230.666 128.684 231.11 128.528 231.518 128.336C231.878 128.168 232.274 127.904 232.706 127.544C232.946 127.352 233.306 127.016 233.786 126.536V122.792ZM255.771 128.444C254.259 130.316 252.003 131.252 249.003 131.252C246.699 131.252 244.803 130.424 243.315 128.768C241.755 127.016 240.975 124.712 240.975 121.856C240.975 119.072 241.707 116.828 243.171 115.124C244.707 113.372 246.843 112.496 249.579 112.496C250.947 112.496 252.747 112.928 254.979 113.792V118.544H253.539C253.203 118.544 252.999 118.376 252.927 118.04C252.903 117.968 252.855 117.512 252.783 116.672L252.675 115.484C252.411 115.388 252.147 115.316 251.883 115.268C251.643 115.22 251.475 115.184 251.379 115.16C250.731 115.064 250.059 115.016 249.363 115.016C248.739 115.016 248.079 115.172 247.383 115.484C246.735 115.772 246.171 116.216 245.691 116.816C244.779 118.016 244.323 119.696 244.323 121.856C244.323 124.016 244.803 125.72 245.763 126.968C246.699 128.168 247.983 128.768 249.615 128.768C251.127 128.768 252.459 128.264 253.611 127.256C253.803 127.064 254.043 126.968 254.331 126.968C254.595 126.968 254.787 127.064 254.907 127.256L255.771 128.444ZM266.697 112.496C267.753 112.496 268.749 112.676 269.685 113.036C270.645 113.396 271.437 113.912 272.061 114.584C272.781 115.352 273.309 116.204 273.645 117.14C274.029 118.22 274.221 119.372 274.221 120.596C274.221 121.148 274.173 121.484 274.077 121.604C273.957 121.772 273.741 121.856 273.429 121.856H261.333C261.333 123.008 261.477 124.016 261.765 124.88C262.005 125.624 262.413 126.32 262.989 126.968C263.517 127.568 264.117 128 264.789 128.264C265.509 128.552 266.277 128.696 267.093 128.696C267.957 128.696 268.653 128.612 269.181 128.444C269.685 128.276 270.189 128.072 270.693 127.832C271.221 127.568 271.581 127.376 271.773 127.256C272.085 127.064 272.325 126.968 272.493 126.968C272.757 126.968 272.961 127.076 273.105 127.292L274.005 128.48C273.669 128.912 273.189 129.32 272.565 129.704C271.845 130.16 271.257 130.46 270.801 130.604C270.081 130.844 269.433 131.012 268.857 131.108C268.137 131.228 267.477 131.288 266.877 131.288C265.629 131.288 264.465 131.072 263.385 130.64C262.353 130.232 261.429 129.596 260.613 128.732C259.845 127.94 259.245 126.92 258.813 125.672C258.381 124.448 258.165 123.056 258.165 121.496C258.165 120.248 258.369 119.072 258.777 117.968C259.185 116.84 259.749 115.88 260.469 115.088C261.213 114.272 262.113 113.636 263.169 113.18C264.225 112.724 265.401 112.496 266.697 112.496ZM266.769 114.836C265.209 114.836 263.997 115.28 263.133 116.168C262.245 117.104 261.693 118.352 261.477 119.912H271.377C271.377 119.168 271.269 118.496 271.053 117.896C270.789 117.152 270.501 116.612 270.189 116.276C269.781 115.844 269.289 115.496 268.713 115.232C268.161 114.992 267.501 114.872 266.733 114.872L266.769 114.836ZM283.48 112.496C284.728 112.496 286.312 112.82 288.232 113.468V118.148H286.828C286.492 118.148 286.288 117.98 286.216 117.644L286 115.268C284.872 115.004 283.936 114.872 283.192 114.872H283.156C282.172 114.872 281.344 115.136 280.672 115.664C280.024 116.168 279.7 116.72 279.7 117.32C279.7 117.944 279.844 118.4 280.132 118.688C280.612 119.24 281.308 119.66 282.22 119.948L283.3 120.272C283.492 120.32 283.876 120.44 284.452 120.632L286.18 121.28C286.66 121.448 287.164 121.76 287.692 122.216C288.676 122.984 289.168 124.04 289.168 125.384C289.168 127.136 288.58 128.528 287.404 129.56C286.132 130.688 284.524 131.252 282.58 131.252C280.588 131.252 278.62 130.928 276.676 130.28V125.528H277.972C278.26 125.528 278.44 125.672 278.512 125.96L278.728 128.264C279.688 128.744 280.924 128.984 282.436 128.984C283.588 128.984 284.524 128.684 285.244 128.084C285.868 127.532 286.18 126.92 286.18 126.248C286.18 125.552 286.036 125.048 285.748 124.736C285.412 124.352 285.052 124.064 284.668 123.872C284.14 123.608 283.636 123.416 283.156 123.296C281.38 122.72 280.264 122.336 279.808 122.144C279.232 121.88 278.692 121.544 278.188 121.136C277.18 120.296 276.676 119.168 276.676 117.752C276.676 116.312 277.252 115.088 278.404 114.08C279.604 113.024 281.296 112.496 283.48 112.496Z" fill="white"/>
<rect x="134" width="96" height="96" rx="48" fill="#333333"/>
<g clip-path="url(#clip0_2_462)">
<path d="M213.13 71.3321L200.666 58.8708C200.104 58.3084 199.341 57.9959 198.541 57.9959H196.503C199.954 53.5838 202.004 48.0344 202.004 41.9975C202.004 27.6364 190.365 16 176.002 16C161.638 16 150 27.6364 150 41.9975C150 56.3586 161.638 67.9949 176.002 67.9949C182.04 67.9949 187.59 65.9451 192.003 62.4955V64.5328C192.003 65.3327 192.316 66.0951 192.878 66.6576L205.342 79.1188C206.517 80.2937 208.417 80.2937 209.579 79.1188L213.117 75.5817C214.292 74.4068 214.292 72.507 213.13 71.3321ZM176.002 57.9959C167.164 57.9959 160.001 50.8466 160.001 41.9975C160.001 33.1608 167.151 25.999 176.002 25.999C184.84 25.999 192.003 33.1483 192.003 41.9975C192.003 50.8341 184.853 57.9959 176.002 57.9959Z" fill="#5373FD"/>
</g>
<defs>
<clipPath id="clip0_2_462">
<rect width="64" height="64" fill="white" transform="translate(150 16)"/>
</clipPath>
</defs>
</svg>
