<svg width="364" height="139" viewBox="0 0 364 139" fill="none" xmlns="http://www.w3.org/2000/svg">
<path d="M94.4425 117.356C97.0345 118.508 98.3305 120.44 98.3305 123.152C98.3305 125.528 97.5865 127.46 96.0985 128.948C94.5385 130.508 92.4025 131.288 89.6905 131.288C88.5625 131.288 87.3865 131.18 86.1625 130.964C85.2025 130.796 84.2425 130.568 83.2825 130.28L82.2385 129.92V123.44H84.0025C84.4105 123.44 84.6505 123.644 84.7225 124.052C84.7705 124.244 84.8305 124.832 84.9025 125.816L85.0105 127.4C86.8825 128.072 88.3465 128.408 89.4025 128.408C90.4585 128.408 91.3465 128.288 92.0665 128.048C92.7625 127.832 93.3145 127.508 93.7225 127.076C94.6345 126.236 95.0905 125.096 95.0905 123.656C95.0905 122.264 94.4425 121.208 93.1465 120.488C92.5705 120.128 91.9225 119.84 91.2025 119.624C88.6345 118.832 87.1225 118.328 86.6665 118.112C85.9705 117.8 85.3105 117.368 84.6865 116.816C83.4145 115.688 82.7785 114.08 82.7785 111.992C82.7785 110.096 83.4625 108.464 84.8305 107.096C86.3185 105.656 88.2385 104.936 90.5905 104.936C93.0865 104.936 95.4985 105.416 97.8265 106.376V112.316H96.0985C95.6665 112.316 95.4145 112.112 95.3425 111.704C95.3425 111.632 95.3185 111.392 95.2705 110.984C95.2465 110.552 95.1865 109.724 95.0905 108.5C93.4105 108.044 91.9945 107.816 90.8425 107.816C89.2825 107.816 88.0825 108.2 87.2425 108.968C86.4265 109.712 86.0185 110.672 86.0185 111.848C86.0185 113.12 86.6665 114.116 87.9625 114.836C88.4905 115.172 89.1625 115.472 89.9785 115.736C92.1385 116.456 93.6505 116.996 94.5145 117.356H94.4425ZM108.441 112.496C109.497 112.496 110.493 112.676 111.429 113.036C112.389 113.396 113.181 113.912 113.805 114.584C114.525 115.352 115.053 116.204 115.389 117.14C115.773 118.22 115.965 119.372 115.965 120.596C115.965 121.148 115.917 121.484 115.821 121.604C115.701 121.772 115.485 121.856 115.173 121.856H103.077C103.077 123.008 103.221 124.016 103.509 124.88C103.749 125.624 104.157 126.32 104.733 126.968C105.261 127.568 105.861 128 106.533 128.264C107.253 128.552 108.021 128.696 108.837 128.696C109.701 128.696 110.397 128.612 110.925 128.444C111.429 128.276 111.933 128.072 112.437 127.832C112.965 127.568 113.325 127.376 113.517 127.256C113.829 127.064 114.069 126.968 114.237 126.968C114.501 126.968 114.705 127.076 114.849 127.292L115.749 128.48C115.413 128.912 114.933 129.32 114.309 129.704C113.589 130.16 113.001 130.46 112.545 130.604C111.825 130.844 111.177 131.012 110.601 131.108C109.881 131.228 109.221 131.288 108.621 131.288C107.373 131.288 106.209 131.072 105.129 130.64C104.097 130.232 103.173 129.596 102.357 128.732C101.589 127.94 100.989 126.92 100.557 125.672C100.125 124.448 99.9095 123.056 99.9095 121.496C99.9095 120.248 100.113 119.072 100.521 117.968C100.929 116.84 101.493 115.88 102.213 115.088C102.957 114.272 103.857 113.636 104.913 113.18C105.969 112.724 107.145 112.496 108.441 112.496ZM108.513 114.836C106.953 114.836 105.741 115.28 104.877 116.168C103.989 117.104 103.437 118.352 103.221 119.912H113.121C113.121 119.168 113.013 118.496 112.797 117.896C112.533 117.152 112.245 116.612 111.933 116.276C111.525 115.844 111.033 115.496 110.457 115.232C109.905 114.992 109.245 114.872 108.477 114.872L108.513 114.836ZM125.908 128.768C126.292 128.84 126.484 129.068 126.484 129.452V131H118.06V129.452C118.06 129.068 118.252 128.84 118.636 128.768L120.652 128.372V107.096C119.548 106.88 118.876 106.736 118.636 106.664C118.252 106.592 118.06 106.376 118.06 106.016V104.468H123.892V128.336C124.996 128.552 125.668 128.696 125.908 128.768ZM136.602 112.496C137.658 112.496 138.654 112.676 139.59 113.036C140.55 113.396 141.342 113.912 141.966 114.584C142.686 115.352 143.214 116.204 143.55 117.14C143.934 118.22 144.126 119.372 144.126 120.596C144.126 121.148 144.078 121.484 143.982 121.604C143.862 121.772 143.646 121.856 143.334 121.856H131.238C131.238 123.008 131.382 124.016 131.67 124.88C131.91 125.624 132.318 126.32 132.894 126.968C133.422 127.568 134.022 128 134.694 128.264C135.414 128.552 136.182 128.696 136.998 128.696C137.862 128.696 138.558 128.612 139.086 128.444C139.59 128.276 140.094 128.072 140.598 127.832C141.126 127.568 141.486 127.376 141.678 127.256C141.99 127.064 142.23 126.968 142.398 126.968C142.662 126.968 142.866 127.076 143.01 127.292L143.91 128.48C143.574 128.912 143.094 129.32 142.47 129.704C141.75 130.16 141.162 130.46 140.706 130.604C139.986 130.844 139.338 131.012 138.762 131.108C138.042 131.228 137.382 131.288 136.782 131.288C135.534 131.288 134.37 131.072 133.29 130.64C132.258 130.232 131.334 129.596 130.518 128.732C129.75 127.94 129.15 126.92 128.718 125.672C128.286 124.448 128.07 123.056 128.07 121.496C128.07 120.248 128.274 119.072 128.682 117.968C129.09 116.84 129.654 115.88 130.374 115.088C131.118 114.272 132.018 113.636 133.074 113.18C134.13 112.724 135.306 112.496 136.602 112.496ZM136.674 114.836C135.114 114.836 133.902 115.28 133.038 116.168C132.15 117.104 131.598 118.352 131.382 119.912H141.282C141.282 119.168 141.174 118.496 140.958 117.896C140.694 117.152 140.406 116.612 140.094 116.276C139.686 115.844 139.194 115.496 138.618 115.232C138.066 114.992 137.406 114.872 136.638 114.872L136.674 114.836ZM161.57 128.444C160.058 130.316 157.802 131.252 154.802 131.252C152.498 131.252 150.602 130.424 149.114 128.768C147.554 127.016 146.774 124.712 146.774 121.856C146.774 119.072 147.506 116.828 148.97 115.124C150.506 113.372 152.642 112.496 155.378 112.496C156.746 112.496 158.546 112.928 160.778 113.792V118.544H159.338C159.002 118.544 158.798 118.376 158.726 118.04C158.702 117.968 158.654 117.512 158.582 116.672L158.474 115.484C158.21 115.388 157.946 115.316 157.682 115.268C157.442 115.22 157.274 115.184 157.178 115.16C156.53 115.064 155.858 115.016 155.162 115.016C154.538 115.016 153.878 115.172 153.182 115.484C152.534 115.772 151.97 116.216 151.49 116.816C150.578 118.016 150.122 119.696 150.122 121.856C150.122 124.016 150.602 125.72 151.562 126.968C152.498 128.168 153.782 128.768 155.414 128.768C156.926 128.768 158.258 128.264 159.41 127.256C159.602 127.064 159.842 126.968 160.13 126.968C160.394 126.968 160.586 127.064 160.706 127.256L161.57 128.444ZM170.142 131.288C168.75 131.288 167.646 130.88 166.83 130.064C166.062 129.296 165.678 128.144 165.678 126.608V115.448H163.482C163.266 115.448 163.098 115.4 162.978 115.304C162.858 115.208 162.798 115.028 162.798 114.764V113.504L165.786 113.108L166.506 107.456C166.506 107.264 166.578 107.12 166.722 107.024C166.842 106.928 167.01 106.88 167.226 106.88H168.846V113.144H174.066V115.484H168.846V126.428C168.846 127.22 169.026 127.796 169.386 128.156C169.746 128.516 170.238 128.696 170.862 128.696C171.126 128.696 171.426 128.648 171.762 128.552C171.978 128.48 172.194 128.384 172.41 128.264C172.482 128.216 172.554 128.168 172.626 128.12C172.698 128.072 172.77 128.024 172.842 127.976C173.034 127.88 173.154 127.832 173.202 127.832C173.37 127.832 173.514 127.928 173.634 128.12L174.57 129.632C173.922 130.184 173.25 130.592 172.554 130.856C171.762 131.144 170.958 131.288 170.142 131.288ZM198.335 105.728C201.887 106.88 203.663 109.376 203.663 113.216C203.663 115.688 202.847 117.632 201.215 119.048C199.463 120.584 197.087 121.352 194.087 121.352H190.415V128.372C190.607 128.444 191.303 128.588 192.503 128.804C192.839 128.876 193.007 129.104 193.007 129.488V131H184.367V129.488C184.367 129.104 184.547 128.876 184.907 128.804L186.959 128.408V107.852C185.807 107.636 185.123 107.492 184.907 107.42C184.547 107.348 184.367 107.12 184.367 106.736V105.224H194.087C195.695 105.224 197.111 105.404 198.335 105.764V105.728ZM200.171 113.144C200.171 111.536 199.667 110.264 198.659 109.328C197.675 108.416 196.151 107.96 194.087 107.96H190.415V118.544H194.087C196.031 118.544 197.531 118.064 198.587 117.104C199.667 116.12 200.207 114.812 200.207 113.18L200.171 113.144ZM213.412 128.768C213.796 128.84 213.988 129.068 213.988 129.452V131H205.564V129.452C205.564 129.068 205.756 128.84 206.14 128.768L208.156 128.372V107.096C207.052 106.88 206.38 106.736 206.14 106.664C205.756 106.592 205.564 106.376 205.564 106.016V104.468H211.396V128.336C212.5 128.552 213.172 128.696 213.412 128.768ZM231.846 128.696C232.014 128.72 232.146 128.804 232.242 128.948C232.338 129.068 232.386 129.212 232.386 129.38V130.928H228.642C228.426 130.928 228.174 130.88 227.886 130.784C227.718 130.736 227.598 130.544 227.526 130.208L227.166 128.48L225.726 129.668C225.318 130.004 224.838 130.292 224.286 130.532C223.758 130.772 223.23 130.952 222.702 131.072C222.222 131.192 221.574 131.252 220.758 131.252C220.086 131.252 219.438 131.144 218.814 130.928C218.07 130.664 217.53 130.376 217.194 130.064C216.762 129.68 216.402 129.176 216.114 128.552C215.85 128 215.718 127.28 215.718 126.392C215.718 125.624 215.91 124.928 216.294 124.304C216.726 123.608 217.374 123.008 218.238 122.504C219.198 121.952 220.35 121.52 221.694 121.208C223.086 120.896 224.838 120.74 226.95 120.74V119.336C226.95 117.92 226.638 116.84 226.014 116.096C225.39 115.352 224.49 114.98 223.314 114.98C222.546 114.98 221.886 115.088 221.334 115.304C220.71 115.544 220.254 115.76 219.966 115.952C219.822 116.048 219.654 116.156 219.462 116.276C219.294 116.372 219.114 116.48 218.922 116.6C218.658 116.792 218.382 116.888 218.094 116.888C217.83 116.888 217.638 116.84 217.518 116.744C217.374 116.624 217.254 116.48 217.158 116.312L216.582 115.304C217.518 114.392 218.598 113.672 219.822 113.144C220.926 112.664 222.222 112.424 223.71 112.424C224.79 112.424 225.702 112.592 226.446 112.928C227.262 113.288 227.922 113.744 228.426 114.296C228.954 114.848 229.362 115.568 229.65 116.456C229.914 117.248 230.046 118.184 230.046 119.264V128.372C231.198 128.612 231.798 128.744 231.846 128.768V128.696ZM226.878 122.792C225.318 122.792 224.07 122.876 223.134 123.044C222.222 123.212 221.382 123.464 220.614 123.8C219.942 124.112 219.462 124.472 219.174 124.88C218.886 125.312 218.742 125.768 218.742 126.248C218.742 126.632 218.826 127.04 218.994 127.472C219.138 127.832 219.354 128.12 219.642 128.336C219.93 128.552 220.242 128.708 220.578 128.804C220.986 128.924 221.382 128.984 221.766 128.984C222.246 128.984 222.75 128.924 223.278 128.804C223.758 128.684 224.202 128.528 224.61 128.336C224.97 128.168 225.366 127.904 225.798 127.544C226.038 127.352 226.398 127.016 226.878 126.536V122.792ZM248.863 128.444C247.351 130.316 245.095 131.252 242.095 131.252C239.791 131.252 237.895 130.424 236.407 128.768C234.847 127.016 234.067 124.712 234.067 121.856C234.067 119.072 234.799 116.828 236.263 115.124C237.799 113.372 239.935 112.496 242.671 112.496C244.039 112.496 245.839 112.928 248.071 113.792V118.544H246.631C246.295 118.544 246.091 118.376 246.019 118.04C245.995 117.968 245.947 117.512 245.875 116.672L245.767 115.484C245.503 115.388 245.239 115.316 244.975 115.268C244.735 115.22 244.567 115.184 244.471 115.16C243.823 115.064 243.151 115.016 242.455 115.016C241.831 115.016 241.171 115.172 240.475 115.484C239.827 115.772 239.263 116.216 238.783 116.816C237.871 118.016 237.415 119.696 237.415 121.856C237.415 124.016 237.895 125.72 238.855 126.968C239.791 128.168 241.075 128.768 242.707 128.768C244.219 128.768 245.551 128.264 246.703 127.256C246.895 127.064 247.135 126.968 247.423 126.968C247.687 126.968 247.879 127.064 247.999 127.256L248.863 128.444ZM259.789 112.496C260.845 112.496 261.841 112.676 262.777 113.036C263.737 113.396 264.529 113.912 265.153 114.584C265.873 115.352 266.401 116.204 266.737 117.14C267.121 118.22 267.313 119.372 267.313 120.596C267.313 121.148 267.265 121.484 267.169 121.604C267.049 121.772 266.833 121.856 266.521 121.856H254.425C254.425 123.008 254.569 124.016 254.857 124.88C255.097 125.624 255.505 126.32 256.081 126.968C256.609 127.568 257.209 128 257.881 128.264C258.601 128.552 259.369 128.696 260.185 128.696C261.049 128.696 261.745 128.612 262.273 128.444C262.777 128.276 263.281 128.072 263.785 127.832C264.313 127.568 264.673 127.376 264.865 127.256C265.177 127.064 265.417 126.968 265.585 126.968C265.849 126.968 266.053 127.076 266.197 127.292L267.097 128.48C266.761 128.912 266.281 129.32 265.657 129.704C264.937 130.16 264.349 130.46 263.893 130.604C263.173 130.844 262.525 131.012 261.949 131.108C261.229 131.228 260.569 131.288 259.969 131.288C258.721 131.288 257.557 131.072 256.477 130.64C255.445 130.232 254.521 129.596 253.705 128.732C252.937 127.94 252.337 126.92 251.905 125.672C251.473 124.448 251.257 123.056 251.257 121.496C251.257 120.248 251.461 119.072 251.869 117.968C252.277 116.84 252.841 115.88 253.561 115.088C254.305 114.272 255.205 113.636 256.261 113.18C257.317 112.724 258.493 112.496 259.789 112.496ZM259.861 114.836C258.301 114.836 257.089 115.28 256.225 116.168C255.337 117.104 254.785 118.352 254.569 119.912H264.469C264.469 119.168 264.361 118.496 264.145 117.896C263.881 117.152 263.593 116.612 263.281 116.276C262.873 115.844 262.381 115.496 261.805 115.232C261.253 114.992 260.593 114.872 259.825 114.872L259.861 114.836ZM276.572 112.496C277.82 112.496 279.404 112.82 281.324 113.468V118.148H279.92C279.584 118.148 279.38 117.98 279.308 117.644L279.092 115.268C277.964 115.004 277.028 114.872 276.284 114.872H276.248C275.264 114.872 274.436 115.136 273.764 115.664C273.116 116.168 272.792 116.72 272.792 117.32C272.792 117.944 272.936 118.4 273.224 118.688C273.704 119.24 274.4 119.66 275.312 119.948L276.392 120.272C276.584 120.32 276.968 120.44 277.544 120.632L279.272 121.28C279.752 121.448 280.256 121.76 280.784 122.216C281.768 122.984 282.26 124.04 282.26 125.384C282.26 127.136 281.672 128.528 280.496 129.56C279.224 130.688 277.616 131.252 275.672 131.252C273.68 131.252 271.712 130.928 269.768 130.28V125.528H271.064C271.352 125.528 271.532 125.672 271.604 125.96L271.82 128.264C272.78 128.744 274.016 128.984 275.528 128.984C276.68 128.984 277.616 128.684 278.336 128.084C278.96 127.532 279.272 126.92 279.272 126.248C279.272 125.552 279.128 125.048 278.84 124.736C278.504 124.352 278.144 124.064 277.76 123.872C277.232 123.608 276.728 123.416 276.248 123.296C274.472 122.72 273.356 122.336 272.9 122.144C272.324 121.88 271.784 121.544 271.28 121.136C270.272 120.296 269.768 119.168 269.768 117.752C269.768 116.312 270.344 115.088 271.496 114.08C272.696 113.024 274.388 112.496 276.572 112.496Z" fill="white"/>
<rect x="134" width="96" height="96" rx="48" fill="#333333"/>
<path d="M182 17C164.879 17 151 30.8791 151 48C151 65.1209 164.879 79 182 79C199.121 79 213 65.1209 213 48C213 30.8791 199.121 17 182 17ZM182 23C195.816 23 207 34.1814 207 48C207 61.8165 195.819 73 182 73C168.184 73 157 61.8186 157 48C157 34.1835 168.181 23 182 23ZM199.526 39.2834L196.708 36.4436C196.125 35.8555 195.175 35.8516 194.587 36.4351L176.918 53.9621L169.444 46.4275C168.861 45.8394 167.911 45.8355 167.323 46.4189L164.483 49.2359C163.895 49.8192 163.891 50.769 164.475 51.3573L175.822 62.7967C176.406 63.3849 177.355 63.3887 177.944 62.8052L199.517 41.4048C200.105 40.8213 200.109 39.8715 199.526 39.2834Z" fill="#FF6363"/>
</svg>
